<?xml version="1.0" encoding="UTF-8" standalone="no"?>
<!-- Created with Inkscape (http://www.inkscape.org/) -->

<svg
   xmlns:dc="http://purl.org/dc/elements/1.1/"
   xmlns:cc="http://creativecommons.org/ns#"
   xmlns:rdf="http://www.w3.org/1999/02/22-rdf-syntax-ns#"
   xmlns:svg="http://www.w3.org/2000/svg"
   xmlns="http://www.w3.org/2000/svg"
   xmlns:sodipodi="http://sodipodi.sourceforge.net/DTD/sodipodi-0.dtd"
   xmlns:inkscape="http://www.inkscape.org/namespaces/inkscape"
   inkscape:export-ydpi="96"
   inkscape:export-xdpi="96"
   inkscape:export-filename="icon.png"
   sodipodi:docname="quality-icon.svg"
   viewBox="0 0 256 256"
   height="256"
   width="256"
   inkscape:version="0.92.3 (2405546, 2018-03-11)"
   version="1.1"
   id="svg2">
  <sodipodi:namedview
     inkscape:current-layer="layer2"
     inkscape:window-maximized="1"
     inkscape:window-y="27"
     inkscape:window-x="0"
     inkscape:cy="88.63592"
     inkscape:cx="18.59508"
     inkscape:zoom="0.65186408"
     showguides="false"
     showgrid="false"
     id="namedview4"
     inkscape:window-height="1025"
     inkscape:window-width="1920"
     inkscape:pageshadow="2"
     inkscape:pageopacity="0"
     guidetolerance="10"
     gridtolerance="10"
     objecttolerance="10"
     borderopacity="1"
     bordercolor="#666666"
     pagecolor="#ffffff" />
  <metadata
     id="metadata8">
    <rdf:RDF>
      <cc:Work
         rdf:about="">
        <dc:format>image/svg+xml</dc:format>
        <dc:type
           rdf:resource="http://purl.org/dc/dcmitype/StillImage" />
        <dc:title></dc:title>
      </cc:Work>
    </rdf:RDF>
  </metadata>
  <defs
     id="defs6">
    <clipPath
       clipPathUnits="userSpaceOnUse"
       id="clipPath34371">
      <rect
         style="fill:#3771c8;fill-opacity:1;stroke:none;stroke-width:2.00009322;stroke-opacity:1"
         id="rect34373"
         width="256"
         height="256"
         x="0"
         y="0" />
    </clipPath>
    <clipPath
       clipPathUnits="userSpaceOnUse"
       id="clipPath34375">
      <rect
         style="fill:#3771c8;fill-opacity:1;stroke:none;stroke-width:2.00009322;stroke-opacity:1"
         id="rect34377"
         width="256"
         height="256"
         x="0"
         y="0" />
    </clipPath>
    <clipPath
       clipPathUnits="userSpaceOnUse"
       id="clipPath34379">
      <rect
         style="fill:#3771c8;fill-opacity:1;stroke:none;stroke-width:2.00009322;stroke-opacity:1"
         id="rect34381"
         width="256"
         height="256"
         x="0"
         y="0" />
    </clipPath>
    <clipPath
       clipPathUnits="userSpaceOnUse"
       id="clipPath34383">
      <rect
         style="fill:#3771c8;fill-opacity:1;stroke:none;stroke-width:2.00009322;stroke-opacity:1"
         id="rect34385"
         width="256"
         height="256"
         x="0"
         y="0" />
    </clipPath>
    <clipPath
       clipPathUnits="userSpaceOnUse"
       id="clipPath34387">
      <rect
         style="fill:#3771c8;fill-opacity:1;stroke:none;stroke-width:2.00009322;stroke-opacity:1"
         id="rect34389"
         width="256"
         height="256"
         x="0"
         y="0" />
    </clipPath>
    <clipPath
       clipPathUnits="userSpaceOnUse"
       id="clipPath34391">
      <rect
         style="fill:#3771c8;fill-opacity:1;stroke:none;stroke-width:2.00009322;stroke-opacity:1"
         id="rect34393"
         width="256"
         height="256"
         x="0"
         y="0" />
    </clipPath>
    <clipPath
       clipPathUnits="userSpaceOnUse"
       id="clipPath34395">
      <rect
         style="fill:#3771c8;fill-opacity:1;stroke:none;stroke-width:2.00009322;stroke-opacity:1"
         id="rect34397"
         width="256"
         height="256"
         x="0"
         y="0" />
    </clipPath>
  </defs>
  <g
     inkscape:label="Background"
     id="layer1"
     inkscape:groupmode="layer">
    <rect
       y="0"
       x="0"
       height="256"
       width="256"
       id="rect1402"
       style="fill:#5f8dd3;fill-opacity:1;stroke:none;stroke-width:2.00009322;stroke-opacity:1" />
  </g>
  <g
     inkscape:label="Icon"
     id="layer2"
     inkscape:groupmode="layer">
    <path
       style="opacity:0.68999999;fill:#214478;fill-opacity:1;stroke:none;stroke-width:0.67500001"
       d="m 139.00781,45.710938 c -3.62236,-0.07434 -7.17473,4.26367 -11.03711,4.263671 -4.11987,0 -8.38615,-4.873961 -12.31445,-4.078125 -0.98893,0.200348 -1.83582,0.733417 -2.60742,1.441407 -0.008,0.0073 -0.0154,0.01605 -0.0234,0.02344 -0.0121,0.011 -0.0231,0.02407 -0.0352,0.03516 -0.16532,0.154405 -0.32909,0.313628 -0.48828,0.482422 -0.0101,0.01072 -0.0211,0.02048 -0.0312,0.03125 -0.004,0.004 -0.008,0.0077 -0.0117,0.01172 -0.0115,0.01213 -0.0237,0.02296 -0.0352,0.03516 -0.0129,0.01352 -0.0262,0.02545 -0.0391,0.03906 -0.0209,0.02184 -0.0437,0.04044 -0.0645,0.0625 -0.0215,0.02251 -0.043,0.04366 -0.0645,0.06641 -0.0251,0.02617 -0.0512,0.04968 -0.0762,0.07617 -0.032,0.0334 -0.0658,0.06374 -0.0977,0.09766 -0.0266,0.02779 -0.0536,0.05388 -0.0801,0.08203 -0.0344,0.03569 -0.0713,0.06723 -0.10547,0.103516 -0.0335,0.03474 -0.0702,0.0682 -0.10351,0.103516 -0.0499,0.05143 -0.10102,0.09965 -0.15039,0.152343 -0.0345,0.03573 -0.0712,0.06717 -0.10547,0.103516 -0.0578,0.05921 -0.11678,0.114871 -0.17383,0.175781 -0.0464,0.04778 -0.0947,0.09175 -0.14062,0.140625 -0.0495,0.0507 -0.10144,0.09648 -0.15039,0.148438 -0.0657,0.06691 -0.13251,0.130105 -0.19727,0.199218 -0.0562,0.05748 -0.11439,0.110825 -0.16992,0.169922 -0.0641,0.06516 -0.13015,0.126091 -0.19336,0.19336 -0.068,0.06898 -0.13806,0.133722 -0.20508,0.205078 -0.0707,0.07151 -0.14331,0.13881 -0.21289,0.21289 -0.074,0.07467 -0.14988,0.145171 -0.22266,0.222657 -0.0827,0.08324 -0.16686,0.16325 -0.24804,0.25 -0.0732,0.07382 -0.14868,0.142167 -0.22071,0.21875 -0.0924,0.09242 -0.18678,0.180536 -0.27734,0.277343 -0.0848,0.08509 -0.17072,0.16708 -0.25391,0.25586 -0.0887,0.08861 -0.17869,0.172966 -0.26562,0.265625 -0.0974,0.09688 -0.19768,0.189255 -0.29297,0.291015 -0.095,0.0945 -0.19022,0.186005 -0.2832,0.285157 -0.0989,0.09797 -0.20011,0.191891 -0.29688,0.294922 -0.11213,0.110567 -0.22461,0.218892 -0.33398,0.335937 -0.10762,0.106489 -0.21719,0.209817 -0.32227,0.322266 -0.10613,0.104768 -0.21471,0.205819 -0.31836,0.316406 -0.11487,0.112654 -0.22984,0.224269 -0.34179,0.34375 -0.11791,0.115355 -0.23673,0.22901 -0.35157,0.351562 -0.008,0.0077 -0.0156,0.01572 -0.0234,0.02344 -3.63793,1.185545 -8.882555,-1.58415 -12.132817,0.572266 -0.209813,0.139202 -0.400954,0.29438 -0.578125,0.464843 -0.0013,0.0013 -0.0026,0.0026 -0.0039,0.0039 -0.01063,0.01016 -0.02073,0.02099 -0.03125,0.03125 -0.0089,0.0086 -0.01652,0.01868 -0.02539,0.02734 -0.01433,0.01368 -0.02688,0.0291 -0.04102,0.04297 -0.01735,0.01652 -0.03372,0.03398 -0.05078,0.05078 -0.02069,0.01965 -0.04027,0.0405 -0.06055,0.06055 -0.02439,0.0231 -0.0465,0.04862 -0.07031,0.07227 -0.02744,0.02594 -0.05336,0.05345 -0.08008,0.08008 -0.0308,0.02905 -0.05995,0.05993 -0.08984,0.08984 -0.03453,0.03248 -0.06621,0.068 -0.09961,0.101562 -0.03599,0.03379 -0.06875,0.0705 -0.103516,0.105469 -0.04485,0.04183 -0.0879,0.08526 -0.130859,0.128906 -0.04336,0.0406 -0.08342,0.08465 -0.125,0.126953 -0.04819,0.04491 -0.09266,0.09362 -0.138672,0.140625 -0.05199,0.0483 -0.100933,0.09967 -0.150391,0.150391 -0.05507,0.05109 -0.105967,0.10635 -0.158203,0.160156 -0.05892,0.05448 -0.114233,0.112336 -0.169922,0.169922 -0.06065,0.05595 -0.116593,0.116556 -0.173828,0.175781 -0.06698,0.06145 -0.130521,0.125976 -0.193359,0.191407 -0.07105,0.06515 -0.136729,0.135463 -0.203125,0.205078 -0.07175,0.06587 -0.138072,0.1366 -0.205078,0.207031 -0.07635,0.06976 -0.147756,0.143848 -0.21875,0.21875 -0.07805,0.07114 -0.150185,0.148112 -0.222657,0.224609 -0.08519,0.07713 -0.165559,0.158711 -0.24414,0.242188 -0.08855,0.08024 -0.170531,0.166815 -0.251953,0.253906 -0.08988,0.08145 -0.173327,0.169313 -0.25586,0.257813 -0.09256,0.08358 -0.178877,0.172634 -0.263672,0.263671 -0.100296,0.09004 -0.19392,0.186413 -0.285156,0.285157 -0.09924,0.08926 -0.190893,0.185408 -0.28125,0.283203 -0.107419,0.09599 -0.207607,0.198769 -0.304687,0.304687 -0.107733,0.09645 -0.207364,0.200193 -0.304688,0.306641 -0.11092,0.09887 -0.214527,0.205025 -0.314453,0.314453 -0.117328,0.104081 -0.226943,0.216196 -0.332031,0.332031 -0.118514,0.105134 -0.227953,0.218817 -0.333985,0.335938 -0.124658,0.110068 -0.240647,0.228295 -0.351562,0.351562 -0.124201,0.109725 -0.239058,0.22873 -0.349609,0.351563 -0.132042,0.115736 -0.254368,0.240649 -0.371094,0.371094 -0.13412,0.117557 -0.258623,0.244231 -0.376953,0.376953 -0.139499,0.121949 -0.268149,0.254279 -0.390625,0.392578 -0.141508,0.123725 -0.272482,0.257899 -0.396485,0.398437 -0.143948,0.125555 -0.278422,0.25943 -0.404297,0.402344 -0.150447,0.130557 -0.289115,0.272454 -0.419922,0.421875 -0.15139,0.131398 -0.29232,0.273333 -0.423828,0.423828 -0.157794,0.136288 -0.303151,0.284474 -0.439453,0.441406 -0.160374,0.138485 -0.309069,0.287479 -0.447265,0.447266 -0.162411,0.139928 -0.313415,0.291392 -0.453125,0.453125 -0.168867,0.144776 -0.324302,0.302472 -0.46875,0.470703 -0.171467,0.146971 -0.330244,0.305435 -0.476563,0.476563 -0.175549,0.150067 -0.337062,0.312965 -0.486328,0.488281 -0.178634,0.152457 -0.344621,0.317545 -0.496094,0.496094 -0.182727,0.155534 -0.351469,0.325055 -0.505859,0.507812 -0.186383,0.158242 -0.358646,0.329137 -0.515625,0.515625 -0.189092,0.160112 -0.362585,0.334322 -0.521484,0.523438 -0.193669,0.163129 -0.37302,0.339783 -0.535157,0.533203 -0.199256,0.167286 -0.38087,0.351551 -0.546875,0.550781 -0.201347,0.168955 -0.387259,0.353148 -0.554687,0.554688 -0.134195,0.112193 -0.264022,0.228491 -0.382813,0.355468 -9.61e-4,0.001 -9.93e-4,0.0029 -0.002,0.0039 -0.03683,0.03588 -0.07978,0.06656 -0.115234,0.103515 -0.0083,0.0086 -0.01713,0.01672 -0.02539,0.02539 -0.0054,0.0056 -0.01022,0.01194 -0.01563,0.01758 -0.01482,0.01514 -0.03034,0.0296 -0.04492,0.04492 -0.01548,0.01581 -0.03166,0.03087 -0.04687,0.04687 -0.01906,0.01937 -0.03797,0.03892 -0.05664,0.05859 -0.02034,0.02059 -0.0426,0.03961 -0.0625,0.06055 -0.03868,0.03619 -0.07601,0.07378 -0.113282,0.111328 -0.02098,0.02145 -0.04004,0.04459 -0.06055,0.06641 -0.03355,0.03365 -0.06725,0.06697 -0.09961,0.101562 -0.03189,0.03191 -0.06489,0.06296 -0.0957,0.0957 -0.04122,0.04078 -0.0836,0.08088 -0.123047,0.123046 -0.0287,0.02839 -0.062,0.05298 -0.08984,0.08203 -0.04239,0.03972 -0.08235,0.0817 -0.123046,0.123046 -0.0042,0.0043 -0.0076,0.0093 -0.01172,0.01367 -0.01577,0.01616 -0.0294,0.03439 -0.04492,0.05078 -0.05002,0.04925 -0.09905,0.09911 -0.146485,0.15039 -0.0483,0.04742 -0.09863,0.09327 -0.144531,0.142578 -0.03985,0.03866 -0.0848,0.07337 -0.123047,0.113282 -0.04335,0.04074 -0.08343,0.08451 -0.125,0.126953 -0.03476,0.03521 -0.06615,0.07315 -0.09961,0.109375 -0.06601,0.06372 -0.131754,0.128149 -0.193359,0.195312 -0.04957,0.04789 -0.103297,0.09275 -0.150391,0.142578 -0.05182,0.0478 -0.101074,0.09824 -0.150391,0.148438 -0.03174,0.03246 -0.0592,0.06824 -0.08984,0.101562 -0.0012,0.0014 -0.0027,0.0026 -0.0039,0.0039 -0.07513,0.07171 -0.149248,0.144594 -0.21875,0.220703 -0.05116,0.04874 -0.109621,0.09182 -0.158203,0.142578 -0.05879,0.05461 -0.112405,0.114163 -0.167969,0.171875 -0.04629,0.04652 -0.08881,0.09622 -0.132812,0.144531 -0.08437,0.07959 -0.168721,0.159081 -0.246094,0.244141 -0.05758,0.05121 -0.117311,0.100187 -0.171875,0.154297 0,0 -0.002,0.002 -0.002,0.002 -0.0013,0.0013 -0.0026,0.0026 -0.0039,0.0039 -0.04347,0.04327 -0.07947,0.09362 -0.121094,0.138672 -0.0753,0.07229 -0.149156,0.145906 -0.21875,0.222656 -0.06563,0.06109 -0.137709,0.117327 -0.199219,0.181641 -0.06361,0.05974 -0.119873,0.126068 -0.179687,0.189453 -0.06329,0.06229 -0.124468,0.125858 -0.183594,0.191406 -0.08126,0.07513 -0.165258,0.148474 -0.240234,0.228516 -0.06797,0.06248 -0.131614,0.128735 -0.195313,0.195312 -0.05662,0.05652 -0.108894,0.116601 -0.162109,0.175781 -0.09375,0.0859 -0.187984,0.171285 -0.273438,0.263672 -0.06766,0.06154 -0.131858,0.125828 -0.195312,0.191407 -0.06338,0.06316 -0.120566,0.130772 -0.179688,0.197265 -0.09501,0.0869 -0.192784,0.172087 -0.279296,0.265625 -0.07455,0.06763 -0.14538,0.138425 -0.214844,0.210938 -0.06426,0.06407 -0.121769,0.13367 -0.181641,0.201172 -0.09408,0.08524 -0.191479,0.168105 -0.277344,0.259765 -0.08192,0.07452 -0.158585,0.153963 -0.234375,0.234375 -0.07252,0.0715 -0.138059,0.148801 -0.205078,0.22461 -0.09112,0.08184 -0.189907,0.158319 -0.273437,0.246093 -0.08234,0.07649 -0.156352,0.161624 -0.232422,0.244141 -0.09045,0.08704 -0.175666,0.177947 -0.257813,0.271484 -0.05403,0.04825 -0.110694,0.09424 -0.162109,0.144532 -0.111254,0.101156 -0.212429,0.212319 -0.3125,0.324218 -0.104326,0.09711 -0.205061,0.197366 -0.298828,0.302735 -0.09166,0.07896 -0.183332,0.158062 -0.267578,0.24414 -0.04618,0.04695 -0.08504,0.09968 -0.128907,0.148438 -0.02031,0.02266 -0.04068,0.04528 -0.06055,0.06836 -0.113019,0.100882 -0.226768,0.200549 -0.328125,0.310547 -0.08824,0.07976 -0.170783,0.165402 -0.251953,0.251953 -0.09213,0.08935 -0.176361,0.185076 -0.259766,0.28125 -0.08373,0.07349 -0.172442,0.142391 -0.25,0.220703 -0.100624,0.09347 -0.189924,0.198375 -0.28125,0.300782 -0.116874,0.107177 -0.228168,0.218587 -0.332031,0.335937 -0.09802,0.0849 -0.195627,0.170625 -0.285157,0.263672 -0.07033,0.07051 -0.132244,0.147996 -0.197265,0.222656 -0.006,0.0071 -0.01165,0.01437 -0.01758,0.02148 -0.115564,0.100442 -0.234047,0.198992 -0.337891,0.308593 -0.09881,0.09096 -0.187457,0.191485 -0.277344,0.291016 -0.117209,0.109717 -0.226372,0.225426 -0.330078,0.345703 -0.101085,0.08541 -0.202732,0.169723 -0.294922,0.263672 -0.05706,0.05768 -0.106619,0.121204 -0.160156,0.181641 -0.02404,0.0273 -0.04884,0.05413 -0.07227,0.08203 -0.123853,0.107791 -0.24905,0.213667 -0.359375,0.332031 -0.101836,0.09313 -0.194707,0.194688 -0.287109,0.296875 -0.120498,0.112996 -0.231719,0.233222 -0.337891,0.357422 -0.109779,0.09199 -0.218991,0.185126 -0.318359,0.287109 -0.04782,0.04852 -0.08942,0.101883 -0.134766,0.152344 -0.03586,0.04032 -0.07292,0.07946 -0.107422,0.121094 -0.12512,0.108083 -0.251817,0.215228 -0.363281,0.333984 -0.106407,0.09758 -0.202718,0.20503 -0.298828,0.3125 -0.125862,0.116153 -0.242936,0.239084 -0.353515,0.367188 -0.112961,0.09537 -0.224267,0.19285 -0.326172,0.298828 -0.08921,0.08867 -0.167329,0.185936 -0.248047,0.28125 -0.0035,0.0043 -0.0082,0.0074 -0.01172,0.01172 -0.130765,0.110132 -0.264478,0.218473 -0.380859,0.339843 -0.113101,0.105907 -0.213096,0.224604 -0.314453,0.341797 -0.128297,0.115629 -0.250317,0.235666 -0.363282,0.363282 -0.118919,0.102961 -0.231369,0.211307 -0.33789,0.326171 -0.1131,0.109216 -0.216471,0.226191 -0.316407,0.345703 -0.0579,0.04814 -0.112764,0.0982 -0.167968,0.148438 -0.07429,0.06454 -0.151338,0.126043 -0.220703,0.195312 -0.01452,0.01499 -0.02673,0.03171 -0.04102,0.04688 -0.08086,0.08308 -0.156025,0.172464 -0.230469,0.261718 -0.138388,0.118816 -0.274727,0.239281 -0.396484,0.371094 -0.120994,0.109129 -0.231969,0.227877 -0.339844,0.349609 -0.133131,0.122467 -0.256976,0.252865 -0.373047,0.388672 -0.128373,0.107287 -0.252937,0.219004 -0.367187,0.339844 -0.104405,0.102931 -0.198155,0.218117 -0.291016,0.330078 -0.107479,0.08809 -0.212316,0.178128 -0.310547,0.273438 -0.156193,0.140775 -0.298965,0.295528 -0.433594,0.457031 -0.139983,0.121262 -0.275711,0.246109 -0.398437,0.380859 -0.1308,0.116133 -0.25153,0.242369 -0.367188,0.373047 -0.133938,0.123747 -0.258449,0.255234 -0.375,0.392578 -0.140274,0.115216 -0.274798,0.236008 -0.398437,0.367188 -0.110386,0.108828 -0.207233,0.228711 -0.304688,0.347656 -0.10943,0.08852 -0.214428,0.181476 -0.314453,0.277344 -0.166963,0.14991 -0.320416,0.312877 -0.46289,0.486328 -0.147519,0.12561 -0.291124,0.254291 -0.419922,0.394531 -0.136716,0.122417 -0.262681,0.25618 -0.382813,0.394531 -0.143274,0.129794 -0.276488,0.267169 -0.40039,0.41211 -0.143912,0.120155 -0.27998,0.247677 -0.40625,0.384765 -0.12801,0.123323 -0.244353,0.256041 -0.355469,0.392579 -0.05116,0.0407 -0.09533,0.08668 -0.144531,0.128906 -0.104431,0.08723 -0.20968,0.173261 -0.304688,0.269531 -0.04221,0.04295 -0.07887,0.0903 -0.11914,0.134766 -0.07218,0.07931 -0.146054,0.157731 -0.212891,0.242187 -0.155103,0.127604 -0.307953,0.257398 -0.443359,0.400391 -0.140329,0.129684 -0.266099,0.273169 -0.388672,0.419922 -0.15344,0.133392 -0.299146,0.27211 -0.431641,0.421875 -0.144,0.124768 -0.278318,0.258315 -0.404297,0.40039 -0.152513,0.139786 -0.291778,0.289949 -0.421875,0.447266 -0.153702,0.124305 -0.299608,0.255223 -0.433594,0.398443 -0.128313,0.12509 -0.242486,0.26178 -0.353515,0.40039 -0.0928,0.0728 -0.175335,0.1527 -0.261719,0.23047 -0.07975,0.0689 -0.162229,0.13471 -0.236328,0.20898 -0.01837,0.0189 -0.03473,0.0394 -0.05273,0.0586 -0.104954,0.10906 -0.206597,0.22236 -0.300781,0.34179 -0.163855,0.1341 -0.320909,0.27264 -0.46289,0.42383 -0.148749,0.1363 -0.283153,0.28609 -0.41211,0.44141 -0.161887,0.13956 -0.314326,0.28574 -0.453125,0.44336 -0.154352,0.13298 -0.297852,0.27695 -0.43164,0.42968 -0.159735,0.14521 -0.306016,0.30061 -0.441407,0.46485 -0.160292,0.12954 -0.312264,0.26596 -0.451171,0.41601 -0.146248,0.14022 -0.278127,0.29177 -0.402344,0.44922 -0.05184,0.04 -0.09462,0.0874 -0.144532,0.12891 -0.127505,0.10386 -0.253426,0.20912 -0.367187,0.32617 -0.04092,0.0417 -0.07614,0.0877 -0.115234,0.13086 -0.08385,0.0933 -0.17142,0.18294 -0.248047,0.2832 -0.172611,0.13736 -0.339007,0.27996 -0.488282,0.43555 -0.155306,0.14533 -0.296151,0.30444 -0.429687,0.4707 -0.171365,0.14291 -0.333785,0.29289 -0.480469,0.45508 -0.161412,0.14244 -0.308575,0.29862 -0.447265,0.46289 -0.169954,0.14883 -0.326881,0.30731 -0.470703,0.47656 -0.169316,0.14083 -0.327492,0.29302 -0.472657,0.45704 -0.162515,0.15015 -0.310606,0.31205 -0.447265,0.48242 -0.178294,0.13862 -0.345524,0.28783 -0.498047,0.45117 -0.1474,0.14308 -0.279712,0.29805 -0.404297,0.45898 -0.08508,0.0646 -0.156365,0.14041 -0.236328,0.20899 -0.111398,0.0926 -0.223485,0.18431 -0.324219,0.28711 -0.02193,0.0226 -0.04109,0.0474 -0.0625,0.0703 -0.113599,0.12098 -0.227277,0.24174 -0.328125,0.375 -0.185256,0.14595 -0.360867,0.29812 -0.519531,0.46484 -0.163566,0.15284 -0.311657,0.32013 -0.451172,0.4961 -0.183392,0.15095 -0.354202,0.31167 -0.509766,0.48437 -0.171925,0.15178 -0.330319,0.31573 -0.476562,0.49219 -0.178225,0.15392 -0.344133,0.31816 -0.494141,0.49414 -0.180277,0.15006 -0.347006,0.31398 -0.5,0.49024 -0.173376,0.15709 -0.331863,0.32633 -0.476562,0.50586 -0.189331,0.14809 -0.365102,0.31036 -0.525391,0.48632 -0.171877,0.16337 -0.327173,0.34027 -0.46875,0.52735 -0.006,0.004 -0.01158,0.009 -0.01758,0.0137 -0.02085,0.0157 -0.04,0.0329 -0.06055,0.0488 -0.165053,0.12809 -0.321953,0.26276 -0.464844,0.41211 -0.08282,0.0827 -0.154997,0.17329 -0.230468,0.26172 -0.0569,0.0694 -0.118538,0.13424 -0.171876,0.20703 -0.158581,0.11915 -0.300796,0.25158 -0.441406,0.38476 -0.225939,0.20081 -0.436806,0.41545 -0.61914,0.65821 -0.186784,0.14855 -0.364091,0.30462 -0.523438,0.4746 -0.181034,0.16459 -0.345842,0.3448 -0.498047,0.53711 -0.193792,0.15941 -0.372518,0.33187 -0.535156,0.51563 -0.184106,0.15946 -0.354679,0.33218 -0.509766,0.51953 -0.192269,0.1649 -0.367726,0.34278 -0.527343,0.5332 -0.192237,0.15763 -0.369663,0.32857 -0.53125,0.51563 -0.18795,0.16863 -0.359087,0.3502 -0.513672,0.54492 -0.202177,0.15654 -0.387264,0.32957 -0.556641,0.51758 -0.181858,0.17115 -0.347764,0.35534 -0.496094,0.55273 -0.207855,0.15167 -0.397993,0.322 -0.572265,0.50586 -0.1187,0.11639 -0.224298,0.24307 -0.328125,0.3711 -0.01181,0.0154 -0.02547,0.0293 -0.03711,0.0449 -0.03408,0.0433 -0.07121,0.0843 -0.103515,0.1289 -0.118348,0.0877 -0.223343,0.18605 -0.332032,0.28125 -0.100868,0.0849 -0.202888,0.1684 -0.294921,0.26172 -0.0087,0.009 -0.01678,0.0183 -0.02539,0.0273 -0.145673,0.15025 -0.284786,0.30674 -0.410156,0.47656 -0.21861,0.16526 -0.420091,0.34242 -0.603516,0.53515 -0.187167,0.1749 -0.359656,0.36345 -0.515625,0.56836 -0.209246,0.16572 -0.399448,0.34642 -0.574219,0.53907 -0.196831,0.17486 -0.379594,0.36328 -0.542968,0.57031 -0.201122,0.16636 -0.385537,0.34619 -0.552735,0.53906 -0.205169,0.17248 -0.392534,0.36206 -0.5625,0.56836 -0.201004,0.17258 -0.383677,0.35994 -0.548828,0.56055 -0.211095,0.16854 -0.405194,0.35334 -0.580078,0.55664 -0.20131,0.1798 -0.383755,0.37431 -0.546875,0.58398 -0.216511,0.16447 -0.41236,0.34879 -0.591797,0.54883 -0.198721,0.18505 -0.379962,0.38356 -0.539062,0.59961 -0.221729,0.15962 -0.421532,0.33931 -0.605469,0.53516 -0.197237,0.191 -0.377386,0.39571 -0.533203,0.61914 -0.09434,0.0688 -0.181134,0.14338 -0.269531,0.21679 -0.12583,0.10221 -0.250825,0.20527 -0.363282,0.32032 -0.04978,0.0505 -0.09158,0.1075 -0.138672,0.16015 -0.114984,0.12937 -0.228573,0.25998 -0.330078,0.40235 -0.207856,0.15206 -0.400428,0.31658 -0.578125,0.49218 -0.222019,0.20145 -0.424122,0.4216 -0.603515,0.66407 -0.230802,0.17464 -0.439498,0.36681 -0.63086,0.57226 -0.208756,0.18853 -0.403252,0.39231 -0.574218,0.61719 -0.224294,0.17744 -0.424834,0.37353 -0.609376,0.58203 -0.214537,0.18582 -0.414266,0.3861 -0.589843,0.60938 -0.220179,0.18116 -0.418074,0.37889 -0.597657,0.59179 -0.220564,0.18223 -0.423047,0.38082 -0.603515,0.60157 -0.217042,0.18507 -0.412448,0.38786 -0.587891,0.60546 -0.228512,0.17929 -0.436338,0.37824 -0.623047,0.59765 -0.217477,0.19228 -0.414541,0.40018 -0.58789,0.62695 -0.2338679,0.17505 -0.443588,0.3719 -0.6347659,0.58789 -0.2135277,0.19609 -0.4076539,0.40738 -0.5761719,0.63868 -0.2458818,0.17441 -0.4639636,0.37543 -0.6640624,0.59375 -0.2092419,0.20064 -0.4013175,0.41366 -0.5644532,0.65039 -0.059723,0.0403 -0.1090806,0.0899 -0.1660156,0.13281 -0.010781,0.008 -0.020549,0.0172 -0.03125,0.0254 -0.1674647,0.12896 -0.325943,0.26528 -0.4707031,0.41602 -0.093894,0.0931 -0.1772098,0.19446 -0.2617188,0.29492 -0.05146,0.0637 -0.1057858,0.12483 -0.1542969,0.1914 -0.042824,0.0576 -0.095012,0.108 -0.1347656,0.16797 -0.1739717,0.1247 -0.334555,0.2599 -0.4882812,0.40039 -0.071519,0.0625 -0.1459552,0.12261 -0.2128906,0.18946 -0.012255,0.0126 -0.023066,0.0263 -0.035156,0.0391 -0.1759598,0.18001 -0.33752,0.37397 -0.484375,0.58203 -0.2518908,0.18271 -0.4897555,0.37834 -0.6972656,0.5957 -0.2130805,0.19861 -0.4030559,0.41918 -0.5761719,0.65625 -0.2498696,0.18687 -0.4755238,0.39267 -0.6796875,0.61524 -0.2260786,0.20123 -0.4347987,0.41885 -0.6171875,0.66211 -0.2435553,0.18945 -0.4586824,0.40157 -0.65625,0.62695 -0.2323852,0.19851 -0.4474626,0.4144 -0.6347656,0.65625 -0.2397398,0.19313 -0.45366745,0.40691 -0.6464844,0.63672 -0.24148015,0.1972 -0.4621882,0.41349 -0.65625,0.65625 -0.23616711,0.19724 -0.44663248,0.41559 -0.63476562,0.65039 -0.24569508,0.19188 -0.46825008,0.40467 -0.66601558,0.64258 -0.2370599,0.2041 -0.448405,0.42812 -0.6347657,0.67187 -0.2527653,0.18851 -0.4783407,0.4027 -0.6816406,0.63867 -0.2348339,0.20938 -0.4484537,0.43516 -0.6308594,0.68555 -0.2627006,0.18703 -0.4924951,0.4056 -0.703125,0.64258 -0.2277522,0.21139 -0.4378309,0.43713 -0.6132812,0.68945 -0.2682379,0.18161 -0.501472,0.39854 -0.7167969,0.63086 -0.2272692,0.21767 -0.4367391,0.44855 -0.609375,0.70899 -0.00378,0.006 -0.00602,0.0119 -0.00977,0.0176 -0.011392,0.007 -0.023813,0.012 -0.035156,0.0195 -0.064981,0.0431 -0.1179741,0.0983 -0.1796875,0.14453 -0.016745,0.0127 -0.032275,0.0263 -0.048828,0.0391 -0.1670399,0.1292 -0.3263078,0.26705 -0.4707031,0.41797 -0.082818,0.0827 -0.1549969,0.17329 -0.2304688,0.26172 -0.062196,0.0758 -0.1275936,0.14861 -0.1855468,0.22851 -0.038777,0.0526 -0.086823,0.0977 -0.1230469,0.15235 -0.011989,0.0181 -0.017685,0.0384 -0.029297,0.0566 -0.193459,0.13411 -0.3734701,0.27884 -0.5429688,0.43164 -0.08188,0.0706 -0.1662489,0.13857 -0.2421874,0.21484 -0.0087,0.009 -0.016774,0.0183 -0.025391,0.0273 -0.1949301,0.19917 -0.3678143,0.41905 -0.5273437,0.65235 -0.2755984,0.19398 -0.5353355,0.40084 -0.7597656,0.63476 -0.2318824,0.21698 -0.4362782,0.46036 -0.6210938,0.72266 -0.2757429,0.19972 -0.5277519,0.41671 -0.7499999,0.6582 -0.234612,0.21173 -0.447385,0.44595 -0.634766,0.70313 -0.27579,0.20514 -0.5182,0.43689 -0.738281,0.68555 -0.246346,0.21337 -0.476284,0.44288 -0.671875,0.70507 -0.265592,0.20488 -0.495838,0.43817 -0.707031,0.68555 -0.258825,0.2142 -0.496843,0.44827 -0.701172,0.71484 -0.261564,0.20871 -0.491157,0.44327 -0.697266,0.69532 -0.266952,0.21233 -0.50847,0.44806 -0.71875,0.71484 -0.256852,0.212 -0.484893,0.44719 -0.685546,0.70313 -0.274119,0.20905 -0.520601,0.44581 -0.736329,0.71093 -0.254166,0.21655 -0.481258,0.45514 -0.677734,0.7168 -0.281568,0.20558 -0.530558,0.4437 -0.751953,0.70703 -0.251811,0.22144 -0.479434,0.46258 -0.671875,0.73047 -0.287232,0.2006 -0.537637,0.43797 -0.763672,0.69727 -0.251922,0.22806 -0.482066,0.47332 -0.671875,0.75 -0.292869,0.19562 -0.542772,0.43419 -0.773438,0.68945 -0.24566,0.2292 -0.472301,0.4725 -0.65625,0.75 -0.0071,0.0107 -0.01064,0.0225 -0.01758,0.0332 -0.01712,0.011 -0.03572,0.018 -0.05273,0.0293 -0.27672,0.18359 -0.515243,0.40566 -0.736328,0.64258 -0.221309,0.21381 -0.426787,0.44048 -0.595703,0.69531 -0.02365,0.0357 -0.0364,0.0751 -0.05859,0.11133 -0.04206,0.0259 -0.08749,0.0428 -0.128906,0.0703 -0.05089,0.0338 -0.09175,0.0776 -0.140625,0.11328 -0.03738,0.028 -0.07099,0.0592 -0.107422,0.0879 -0.155861,0.12216 -0.307425,0.24935 -0.44336,0.39063 -0.07069,0.0709 -0.131938,0.14954 -0.197265,0.22461 -0.08225,0.0976 -0.165211,0.19425 -0.240235,0.29882 -0.02889,0.0402 -0.06633,0.0739 -0.09375,0.11524 -0.02585,0.039 -0.04034,0.0815 -0.06445,0.12109 -0.238671,0.15918 -0.460317,0.33117 -0.664062,0.51758 -0.07099,0.062 -0.144468,0.12112 -0.210938,0.1875 -0.01225,0.0127 -0.02307,0.0263 -0.03516,0.0391 -0.214715,0.21967 -0.404067,0.46386 -0.576172,0.72461 -0.301925,0.20609 -0.589249,0.42744 -0.832031,0.67969 -0.25268,0.23689 -0.470759,0.50851 -0.667969,0.79883 -0.303541,0.2122 -0.582689,0.4425 -0.824219,0.70312 -0.258285,0.23375 -0.484052,0.49871 -0.685546,0.78712 -0.30363,0.21772 -0.577257,0.46044 -0.816407,0.72852 -0.264706,0.23136 -0.502737,0.48777 -0.708984,0.77538 -0.297924,0.21961 -0.559641,0.46822 -0.792969,0.73828 -0.273837,0.22943 -0.521575,0.48338 -0.734375,0.77148 -0.300806,0.22727 -0.560582,0.48491 -0.792969,0.76563 -0.284902,0.2309 -0.547407,0.48617 -0.767578,0.7793 -0.287813,0.22603 -0.536126,0.48204 -0.757812,0.75976 -0.289188,0.22516 -0.549549,0.47774 -0.773438,0.76563 -0.291232,0.23361 -0.544385,0.49681 -0.765625,0.78515 -0.296773,0.22214 -0.55959,0.47692 -0.789062,0.76368 -0.28822,0.23788 -0.541101,0.50306 -0.757813,0.79687 -0.307007,0.22051 -0.573927,0.47756 -0.810546,0.76563 -0.283304,0.24122 -0.537058,0.50493 -0.748047,0.80273 -0.31619,0.21809 -0.586936,0.48137 -0.830079,0.76953 -0.280032,0.24605 -0.536179,0.51049 -0.742187,0.81445 -0.321618,0.21338 -0.592342,0.47727 -0.839844,0.76172 -0.268422,0.24275 -0.517213,0.50069 -0.714843,0.79883 -0.0095,0.0144 -0.01415,0.0305 -0.02344,0.0449 -0.01962,0.0126 -0.04107,0.0203 -0.06055,0.0332 -0.303899,0.20162 -0.561469,0.44942 -0.798828,0.71484 -0.244838,0.2287 -0.472802,0.4713 -0.65625,0.74805 -0.02371,0.0358 -0.03635,0.0751 -0.05859,0.11132 -0.0441,0.0271 -0.09137,0.0454 -0.134765,0.0742 -0.281058,0.18647 -0.522353,0.4129 -0.746094,0.6543 -0.227269,0.21767 -0.436739,0.44855 -0.609375,0.70898 -0.03864,0.0583 -0.06093,0.12204 -0.0957,0.18164 -0.06821,0.0401 -0.140465,0.0691 -0.207032,0.11329 -0.26177,0.17367 -0.489416,0.38191 -0.701171,0.60351 -0.102366,0.10115 -0.191966,0.21241 -0.283203,0.32227 -0.03709,0.0468 -0.07776,0.0903 -0.113282,0.13867 -0.0515,0.0678 -0.11297,0.12803 -0.160156,0.19922 -0.04221,0.0637 -0.06592,0.13399 -0.103516,0.19922 -0.233395,0.14904 -0.450153,0.31101 -0.652343,0.48437 -0.105373,0.0879 -0.212803,0.17441 -0.308594,0.27149 -0.03927,0.04 -0.07373,0.0837 -0.111328,0.125 -0.204085,0.22307 -0.386776,0.46674 -0.550781,0.72851 -0.311658,0.20255 -0.600549,0.42159 -0.853516,0.66992 -0.303859,0.27731 -0.560746,0.5992 -0.78711,0.95118 -0.339986,0.2255 -0.656556,0.4697 -0.923828,0.75195 -0.280917,0.25963 -0.518785,0.56031 -0.732422,0.88476 -0.337809,0.2294 -0.64473,0.48407 -0.908203,0.77149 -0.288436,0.25777 -0.538915,0.55221 -0.757812,0.87695 -0.337229,0.23448 -0.639925,0.49465 -0.900391,0.78906 -0.29345,0.25426 -0.550729,0.54289 -0.773437,0.86524 -0.336633,0.23941 -0.633128,0.50933 -0.890625,0.81055 -0.298927,0.25049 -0.564151,0.53369 -0.791016,0.85351 -0.334767,0.24353 -0.625072,0.52137 -0.878906,0.82813 -0.306408,0.24761 -0.580276,0.52676 -0.8125,0.8457 -0.334826,0.24914 -0.621996,0.535 -0.873047,0.84961 -0.313696,0.2451 -0.596592,0.51945 -0.833984,0.83789 -0.330569,0.25234 -0.609653,0.5447 -0.855469,0.86328 -0.330618,0.24875 -0.627147,0.53111 -0.875,0.85938 -0.317625,0.25143 -0.590865,0.53576 -0.826172,0.85156 -0.336661,0.2439 -0.630298,0.52882 -0.882812,0.85351 -0.320488,0.25919 -0.602095,0.54806 -0.835938,0.875 -0.341756,0.23962 -0.634141,0.5262 -0.890625,0.84766 -0.315631,0.26193 -0.59779,0.55069 -0.826172,0.88086 -0.353494,0.23773 -0.649755,0.52826 -0.914062,0.85156 -0.313845,0.26763 -0.598268,0.55857 -0.822266,0.89649 -0.002,0.003 -0.0019,0.007 -0.0039,0.01 -0.0086,0.006 -0.01876,0.008 -0.02734,0.0137 -0.344828,0.22878 -0.632334,0.51041 -0.892578,0.82032 -0.293744,0.25694 -0.562917,0.53298 -0.775391,0.85351 -0.01577,0.0238 -0.02394,0.0502 -0.03906,0.0742 -0.02905,0.0183 -0.0611,0.0298 -0.08984,0.0488 -0.326509,0.21662 -0.599372,0.48367 -0.849609,0.77344 -0.274174,0.24604 -0.52748,0.50922 -0.728516,0.8125 -0.02865,0.0432 -0.0438,0.0908 -0.07031,0.13476 -0.05162,0.0312 -0.107537,0.0523 -0.158203,0.0859 -0.307429,0.20397 -0.567231,0.45348 -0.80664,0.72266 -0.25603,0.23546 -0.491417,0.48647 -0.681641,0.77343 -0.04183,0.0631 -0.06621,0.13263 -0.103516,0.19727 -0.07417,0.0431 -0.152371,0.0751 -0.224609,0.12305 -0.293268,0.19457 -0.54234,0.43138 -0.773437,0.68554 -0.233356,0.22155 -0.450546,0.45653 -0.626954,0.72266 -0.05532,0.0834 -0.08927,0.17365 -0.136718,0.25976 -0.09613,0.0538 -0.196116,0.0965 -0.289063,0.15821 -0.272798,0.18099 -0.507898,0.39994 -0.726562,0.63281 -0.217315,0.21119 -0.419529,0.43451 -0.585938,0.68555 -0.06176,0.0932 -0.10037,0.19455 -0.152343,0.29101 -0.07258,0.044 -0.139037,0.0926 -0.208985,0.13867 -0.0536,0.0323 -0.111489,0.055 -0.164062,0.0899 -0.04676,0.031 -0.08385,0.0709 -0.128907,0.10351 -0.04913,0.0366 -0.09508,0.0754 -0.142578,0.11328 -0.144281,0.11477 -0.283151,0.23391 -0.410156,0.36524 -0.07921,0.079 -0.148192,0.16578 -0.220703,0.25 -0.07698,0.0923 -0.155968,0.18281 -0.226563,0.28125 -0.02869,0.04 -0.06455,0.0741 -0.0918,0.11523 -0.03207,0.0484 -0.05068,0.10111 -0.08008,0.15039 -0.03482,0.055 -0.07223,0.10752 -0.105468,0.16407 -0.29375,0.1798 -0.56019,0.38099 -0.806641,0.59765 -0.09568,0.0809 -0.193558,0.15952 -0.28125,0.24805 -0.01873,0.0193 -0.03439,0.041 -0.05273,0.0606 -0.256473,0.26857 -0.481657,0.56764 -0.677735,0.89453 -0.359194,0.22424 -0.68601,0.47351 -0.970703,0.75586 -0.333392,0.30465 -0.612346,0.66112 -0.853516,1.05468 -0.38071,0.24229 -0.731468,0.50836 -1.02539,0.81836 -0.31584,0.29057 -0.580304,0.63077 -0.8125,1.00196 -0.380798,0.24726 -0.726301,0.52271 -1.017578,0.83984 -0.320361,0.28681 -0.592531,0.6198 -0.828125,0.98828 -0.379994,0.25158 -0.721553,0.5342 -1.009766,0.85742 -0.326479,0.28358 -0.605769,0.61356 -0.845703,0.98047 -0.378187,0.25529 -0.71342,0.54471 -0.998047,0.87305 -0.334448,0.28116 -0.621875,0.6096 -0.867187,0.97656 -0.378176,0.2604 -0.710422,0.55688 -0.992188,0.89258 -0.340493,0.27794 -0.633216,0.6014 -0.882812,0.9668 -0.378188,0.26568 -0.707521,0.56879 -0.986328,0.91211 -0.346186,0.27429 -0.64471,0.59382 -0.898438,0.95703 -0.375542,0.26932 -0.700077,0.57949 -0.974609,0.92773 -0.353749,0.27106 -0.660962,0.58704 -0.919922,0.94922 -0.375481,0.27469 -0.697324,0.59125 -0.96875,0.94727 -0.36081,0.26794 -0.673648,0.58225 -0.9375,0.94336 -0.373677,0.27936 -0.693683,0.60034 -0.960938,0.96289 -0.367359,0.26423 -0.684601,0.57638 -0.953125,0.93554 -0.371281,0.28342 -0.686276,0.6104 -0.949215,0.97852 -0.38325,0.26612 -0.71036,0.58587 -0.98828,0.95312 -0.36039,0.28391 -0.67403,0.60533 -0.92774,0.97266 -0.3929,0.26383 -0.72364,0.58885 -1.00781,0.95703 -0.3587,0.28978 -0.6768,0.61073 -0.92578,0.98633 -0.002,0.002 -0.002,0.005 -0.004,0.008 -0.007,0.005 -0.0146,0.007 -0.0215,0.0117 -0.38304,0.25413 -0.70055,0.56881 -0.98047,0.92188 -0.34283,0.28218 -0.64843,0.59264 -0.88867,0.95507 -0.0794,0.11983 -0.1339,0.24781 -0.19727,0.37305 -0.70192,0.40792 -1.2914,0.90324 -1.70898,1.5332 -0.0808,0.12182 -0.13702,0.2515 -0.20117,0.37891 -0.70454,0.40857 -1.29609,0.90538 -1.71485,1.53711 -0.0823,0.12419 -0.13803,0.25672 -0.20312,0.38673 -0.70683,0.40915 -1.30286,0.90575 -1.72266,1.53906 -0.0831,0.12543 -0.1395,0.25927 -0.20508,0.39063 -0.71105,0.41019 -1.30877,0.90875 -1.73047,1.54491 -0.0848,0.12791 -0.14245,0.26437 -0.20898,0.39844 -0.71333,0.41077 -1.31361,0.90916 -1.73633,1.54687 -0.0862,0.13 -0.14752,0.26795 -0.21484,0.4043 -0.71531,0.41125 -1.31663,0.91174 -1.74024,1.55078 -0.0881,0.13297 -0.1503,0.27444 -0.21875,0.41406 -0.71756,0.41182 -1.32343,0.91021 -1.74804,1.55078 -0.0892,0.13455 -0.15168,0.27857 -0.22071,0.41992 -0.72026,0.41248 -1.32808,0.91425 -1.7539,1.55664 -1.92029,2.89693 1.01121,7.42994 0.83398,10.95313 -0.52933,0.45535 -0.99137,0.93524 -1.34375,1.45703 -0.78371,0.60038 -1.47026,1.23673 -1.95117,1.95117 -0.78763,0.60297 -1.477,1.24284 -1.95899,1.96094 -0.78912,0.60359 -1.47983,1.24596 -1.96289,1.96484 -1.30385,0.9953 -2.35033,2.08996 -2.6289,3.46875 -0.80693,3.99395 4.99023,7.49517 4.99023,11.63672 0,4.14155 -5.72934,9.15753 -5.0625,12.56446 0.66684,3.40694 7.22819,5.48237 8.56836,9.27734 1.34016,3.79497 -1.91006,9.18722 0.51953,12.85156 2.42959,3.66434 8.21974,1.82707 11.10547,4.8125 2.88573,2.98541 3.07359,10.46597 6.4375,12.6836 3.25,2.14253 8.523943,-1.02854 12.025391,0.125 l -0.238281,0.0371 -0.355469,1.69921 -1.591797,0.2461 -0.355469,1.70703 -1.599609,0.24805 -0.357422,1.71679 -1.607422,0.24805 -0.359375,1.72461 -1.615237,0.25 -8.02539,38.44336 12.814455,-3.23633 9.578125,9.125 0.658203,-3.22852 1.316407,1.25391 0.65625,-3.21289 1.308593,1.24805 0.652344,-3.19727 1.304688,1.24219 0.648437,-3.17969 1.296875,1.23438 0.644531,-3.16407 1.291016,1.22852 0.642578,-3.14844 1.283203,1.22266 0.638672,-3.13281 1.277344,1.21679 0.634766,-3.11523 1.269531,1.20898 0.632812,-3.10156 1.263672,1.20508 0.628906,-3.08399 1.257813,1.19922 0.625,-3.0664 1.25,1.18945 0.623047,-3.05273 1.24414,1.18554 0.619141,-3.0332 1.236328,1.17773 0.275391,-1.34765 5.367187,26.31836 9.578125,-9.12696 12.814453,3.23633 -0.544922,-2.61133 2.519532,0.63672 -0.542969,-2.59765 2.507813,0.63281 -0.539063,-2.58594 2.496094,0.63086 -0.53711,-2.57422 2.482422,0.62695 -0.535156,-2.55859 2.470703,0.62305 -0.53125,-2.54688 2.457031,0.6211 -0.529297,-2.53125 2.445313,0.61718 -0.525391,-2.51953 2.429688,0.61328 -0.523438,-2.50781 2.419922,0.61133 -0.521484,-2.49414 2.408203,0.60742 -0.517578,-2.47851 2.392578,0.60351 -0.515625,-2.46875 2.3828124,0.60156 -0.5117184,-2.45312 2.3671871,0.59765 -0.5097656,-2.44335 2.3574219,0.5957 -0.5058594,-2.42774 2.3417969,0.5918 -0.5039062,-2.41406 2.3300781,0.58789 -0.5019531,-2.40234 2.32031245,0.58593 -0.5,-2.39062 2.30664065,0.58203 -0.49609378,-2.375 2.29296878,0.57812 -0.4941407,-2.36328 2.28125,0.57618 -0.4902343,-2.3496 2.2675781,0.57225 -0.4882812,-2.33594 2.2558593,0.57032 -0.484375,-2.32422 2.240234,0.5664 -0.4824215,-2.31054 2.2304685,0.5625 -0.480468,-2.29883 2.21875,0.56055 -0.476563,-2.28321 2.203125,0.55664 -0.474609,-2.27148 2.193359,0.55273 -0.470703,-2.25781 2.177734,0.55078 -0.46875,-2.24414 2.167969,0.54688 -0.466797,-2.23243 2.154297,0.54297 -0.462891,-2.21875 2.140626,0.54102 -0.460938,-2.20508 2.128906,0.53711 -0.457031,-2.19336 2.115234,0.53516 -0.455078,-2.17969 2.103516,0.53125 -0.453125,-2.16602 2.091797,0.52735 -0.449219,-2.1543 2.078125,0.52539 -0.447266,-2.14062 2.066407,0.52148 -0.44336,-2.12695 2.052735,0.51758 -0.441407,-2.11329 2.039063,0.51563 -0.439453,-2.10156 2.029297,0.51172 -0.435547,-2.08789 2.015625,0.50976 -0.433594,-2.07617 2.001953,0.50586 -0.429687,-2.06055 1.988281,0.50195 -0.427734,-2.05078 1.978515,0.5 -0.425781,-2.03515 1.964844,0.49609 -0.421875,-2.02148 1.951171,0.49218 -0.419921,-2.00976 1.939453,0.49023 -0.416016,-1.99609 1.925781,0.48633 -0.414062,-1.98438 1.914062,0.48438 -0.412109,-1.97071 1.902344,0.48047 -0.408203,-1.95703 1.888671,0.47656 -0.40625,-1.94531 1.876954,0.47461 -0.402344,-1.92969 1.863281,0.47071 -0.400391,-1.91797 1.84961,0.46679 -0.398438,-1.90625 1.839844,0.46485 -0.394531,-1.89063 1.824219,0.46094 -0.392578,-1.87891 1.814453,0.45704 -0.388672,-1.86524 1.798828,0.45508 -0.386719,-1.85156 1.78711,0.45117 -0.384766,-1.83984 1.777344,0.44921 -0.38086,-1.82812 1.761719,0.44531 -0.378906,-1.8125 1.75,0.44142 -0.375,-1.79884 1.736328,0.4375 -0.373047,-1.7871 1.724609,0.43554 -0.36914,-1.77148 1.710937,0.43164 -0.367187,-1.76172 1.697265,0.42968 -0.365234,-1.74804 1.6875,0.42578 -0.361328,-1.73438 1.673828,0.42188 -0.359375,-1.72071 1.660156,0.41993 -0.357422,-1.70899 1.650391,0.41602 -0.353516,-1.69336 1.634766,0.41211 -0.351562,-1.6836 1.625,0.41016 -0.347657,-1.66797 1.609375,0.40625 -0.345703,-1.65625 1.597656,0.4043 -0.34375,-1.64258 1.587891,0.40039 -0.339844,-1.63086 1.572266,0.39648 -0.337891,-1.61718 1.560547,0.39453 -0.333984,-1.60352 1.546875,0.39063 -0.332031,-1.58789 1.535156,0.38672 -0.330078,-1.57813 1.521484,0.38477 -0.326172,-1.56446 1.509766,0.38086 -0.324219,-1.55273 1.498047,0.3789 -0.320313,-1.5371 1.484375,0.375 -0.318359,-1.5254 1.470703,0.3711 -0.316406,-1.51172 1.460937,0.36914 -0.3125,-1.5 1.445312,0.36523 -0.31054,-1.48437 1.43359,0.36133 -0.30664,-1.47266 1.42187,0.35938 -0.30468,-1.46094 1.4082,0.35547 -0.30274,-1.44532 1.39649,0.35157 -0.29883,-1.4336 1.38281,0.34961 -0.29687,-1.41992 1.37109,0.3457 -0.29297,-1.4082 1.35742,0.34375 -0.29101,-1.39453 1.3457,0.33984 -0.28906,-1.38086 1.33398,0.33594 -0.28515,-1.36719 1.31836,0.33399 -0.28321,-1.35547 1.3086,0.33008 -0.28125,-1.3418 1.29687,0.32617 -0.27734,-1.32812 1.28125,0.32422 -0.27539,-1.31446 1.27148,0.32032 -0.27148,-1.30274 1.25586,0.31641 -0.26953,-1.28906 1.24414,0.31445 -0.26563,-1.27539 1.23242,0.31055 -0.26367,-1.26563 1.21875,0.30859 -0.26172,-1.25 1.20703,0.30469 -0.25781,-1.23633 1.19336,0.30078 -0.25586,-1.2246 1.18164,0.29882 -0.25195,-1.21093 1.16797,0.29492 -0.25,-1.19531 1.15625,0.29101 -0.24805,-1.18555 1.14258,0.28907 -0.24414,-1.17188 1.13086,0.28516 -0.24219,-1.16016 1.11914,0.2832 -0.23828,-1.14453 1.10352,0.2793 -0.23633,-1.13281 1.09375,0.27539 -0.23438,-1.11914 1.08008,0.27344 -0.23047,-1.10547 1.06836,0.26953 -0.22851,-1.09375 1.05468,0.26562 -0.22461,-1.08008 1.04102,0.26368 -0.22266,-1.06641 1.0293,0.25977 -0.2207,-1.05274 1.01758,0.25586 -0.2168,-1.04101 1.00391,0.2539 -0.21485,-1.02734 0.99219,0.25 -0.21094,-1.01563 0.97852,0.24805 -0.20899,-1.00195 0.9668,0.24414 -0.20703,-0.98633 0.95508,0.24023 -0.20313,-0.97656 0.93945,0.23828 -0.20117,-0.96289 0.92969,0.23438 -0.19727,-0.94727 0.91407,0.23047 -0.19532,-0.9375 0.9043,0.22852 -0.19336,-0.92188 0.89063,0.22461 -0.18946,-0.9082 0.87696,0.2207 -0.1875,-0.89649 0.86718,0.21876 -0.18554,-0.88477 0.85351,0.21484 -0.18164,-0.87109 0.83985,0.21289 -0.17969,-0.85742 0.82812,0.20898 -0.17578,-0.84375 0.81446,0.20508 -0.17383,-0.83203 0.80273,0.20312 -0.16992,-0.8164 0.78906,0.19922 -0.16797,-0.80469 0.77539,0.19531 -0.16601,-0.79297 0.76562,0.19336 -0.16211,-0.77734 0.75196,0.18945 -0.16016,-0.76562 0.73828,0.18554 -0.1582,-0.7539 0.72852,0.18359 -0.1543,-0.73828 0.71289,0.17969 -0.15235,-0.72657 0.70118,0.17774 -0.14844,-0.71484 0.68945,0.17382 -0.14648,-0.69922 0.67578,0.16993 -0.14258,-0.6875 0.66211,0.16797 -0.14062,-0.67383 0.65039,0.16406 -0.13868,-0.66211 0.63868,0.16211 -0.13477,-0.64844 0.625,0.15821 -0.13281,-0.63477 0.61328,0.1543 -0.12891,-0.6211 0.59961,0.15235 -0.12695,-0.60938 0.58594,0.14844 -0.125,-0.5957 0.57617,0.14453 -0.12109,-0.58203 0.5625,0.14257 -0.11915,-0.57031 0.54883,0.13867 -0.11523,-0.55664 0.53711,0.13672 -0.11328,-0.54492 0.52343,0.13281 -0.11132,-0.52929 0.51171,0.1289 -0.10742,-0.51562 0.49805,0.125 -0.10547,-0.50391 0.48828,0.12305 -0.10351,-0.49219 0.47461,0.11914 -0.0996,-0.47852 0.46093,0.11719 -0.0977,-0.46484 0.44922,0.11328 -0.0937,-0.44922 0.43554,0.10938 -0.0918,-0.43946 0.42187,0.10743 -0.0898,-0.42579 0.41211,0.10352 -0.0859,-0.41406 0.39844,0.10156 -0.084,-0.39844 0.38477,0.0977 -0.0801,-0.38672 0.37305,0.0937 -0.0781,-0.37109 0.35938,0.0898 -0.0762,-0.36133 0.3496,0.0879 -0.0723,-0.3457 0.33398,0.084 -0.0703,-0.33398 0.32227,0.082 -0.0664,-0.32031 0.31055,0.0781 -0.0645,-0.30859 0.29688,0.0742 -0.0606,-0.29492 0.28321,0.0723 -0.0586,-0.28125 0.27149,0.0684 -0.0566,-0.26758 0.25977,0.0645 -0.0527,-0.25391 0.24609,0.0625 -0.0508,-0.24219 0.23242,0.0586 -0.0488,-0.23047 0.22266,0.0566 -0.0449,-0.2168 0.20898,0.0527 -0.043,-0.20118 0.19531,0.0488 -0.0391,-0.19141 0.1836,0.0469 -0.0371,-0.17578 0.16992,0.043 -0.0332,-0.16407 0.1582,0.041 -0.0312,-0.15234 0.14453,0.0371 -0.0293,-0.13672 0.13282,0.0332 -0.0254,-0.12305 0.11914,0.0293 -0.0234,-0.11133 0.10742,0.0273 -0.0195,-0.0977 0.0937,0.0234 -0.0176,-0.0859 0.082,0.0215 -0.0156,-0.0723 0.0703,0.0176 -0.0117,-0.0586 0.0566,0.0137 -0.01,-0.0469 0.0449,0.0117 -0.006,-0.0312 0.0293,0.008 -0.004,-0.0215 0.0195,0.006 -8.02539,-38.44141 -2.85352,-0.44141 c 0.0474,-0.0484 0.0875,-0.10548 0.13282,-0.15625 0.0361,-0.0343 0.0766,-0.0641 0.11132,-0.0996 0.10977,-0.10108 0.21123,-0.21144 0.31055,-0.32421 0.11195,-0.0979 0.2209,-0.19888 0.32227,-0.3086 0.0342,-0.0336 0.0647,-0.0707 0.0976,-0.10547 0.12319,-0.11051 0.23935,-0.22855 0.34961,-0.35351 0.0904,-0.0799 0.18027,-0.16029 0.26367,-0.24805 0.026,-0.0262 0.047,-0.0571 0.0723,-0.084 0.008,-0.009 0.0155,-0.0184 0.0234,-0.0273 0.12346,-0.10904 0.23903,-0.22616 0.34961,-0.34961 0.12484,-0.11016 0.24378,-0.22668 0.35547,-0.35156 0.11749,-0.10454 0.22822,-0.21632 0.33398,-0.33398 0.11538,-0.10281 0.22408,-0.21265 0.32813,-0.32813 0.11332,-0.10141 0.22185,-0.2086 0.32421,-0.32226 0.10313,-0.0931 0.20095,-0.19164 0.29493,-0.29493 0.10678,-0.0959 0.20768,-0.19789 0.30468,-0.30468 0.0815,-0.0738 0.16259,-0.14828 0.23828,-0.22852 0.009,-0.009 0.0148,-0.0203 0.0234,-0.0293 0.005,-0.006 0.0104,-0.0118 0.0156,-0.0176 0.0997,-0.09 0.194,-0.18562 0.28515,-0.28516 0.088,-0.0801 0.17261,-0.16429 0.25391,-0.25195 0.0158,-0.0154 0.0372,-0.0292 0.0527,-0.0449 0.0751,-0.0703 0.14471,-0.14678 0.21485,-0.22265 0.0866,-0.0791 0.16994,-0.16161 0.25,-0.24805 0.0827,-0.0759 0.16159,-0.15569 0.23828,-0.23828 0.0778,-0.0717 0.15212,-0.14696 0.22461,-0.22461 0.0754,-0.0696 0.14836,-0.14164 0.21875,-0.2168 0.0709,-0.0656 0.13863,-0.13448 0.20508,-0.20507 0.0665,-0.0616 0.1308,-0.12542 0.19336,-0.19141 0.0668,-0.0619 0.13049,-0.12701 0.19335,-0.19336 0.0615,-0.0574 0.12155,-0.11656 0.17969,-0.17773 0.0587,-0.055 0.11626,-0.11152 0.17188,-0.16993 0.0509,-0.0479 0.0999,-0.0979 0.14843,-0.14843 0.053,-0.0497 0.10386,-0.1018 0.1543,-0.1543 0.0451,-0.0427 0.0895,-0.0861 0.13281,-0.13086 0.0455,-0.0429 0.0892,-0.0878 0.13282,-0.13281 0.0414,-0.0393 0.0813,-0.08 0.12109,-0.1211 0.0343,-0.0327 0.0684,-0.0657 0.10156,-0.0996 0.035,-0.0333 0.0697,-0.067 0.10352,-0.10156 0.0299,-0.0286 0.0588,-0.0583 0.0879,-0.0879 0.0269,-0.0258 0.0539,-0.0516 0.0801,-0.0781 0.0232,-0.0223 0.0457,-0.0455 0.0684,-0.0684 0.0199,-0.0192 0.0391,-0.039 0.0586,-0.0586 0.0169,-0.0163 0.0342,-0.0322 0.0508,-0.0488 0.0129,-0.0125 0.0264,-0.0244 0.0391,-0.0371 0.01,-0.01 0.0195,-0.0196 0.0293,-0.0293 0.007,-0.006 0.013,-0.013 0.0195,-0.0195 0.0448,-0.044 0.082,-0.0965 0.125,-0.14258 0.0587,-0.0587 0.10716,-0.12711 0.16211,-0.18945 0.03,-0.0359 0.0608,-0.0705 0.0899,-0.10743 0.002,-0.001 0.004,-0.002 0.006,-0.004 0.19655,-0.16269 0.3749,-0.34344 0.53711,-0.53906 0.20184,-0.16587 0.38487,-0.35047 0.55079,-0.55079 0.19569,-0.16198 0.37348,-0.34054 0.53515,-0.53515 0.18971,-0.15753 0.36186,-0.33127 0.51953,-0.51953 0.18919,-0.15709 0.36221,-0.32993 0.51953,-0.51758 0.18368,-0.1534 0.35239,-0.32153 0.50586,-0.50391 0.18021,-0.15098 0.34506,-0.31713 0.4961,-0.49609 0.17707,-0.14893 0.33948,-0.31223 0.48828,-0.48828 0.17025,-0.14397 0.32672,-0.30154 0.4707,-0.47071 0.16968,-0.14353 0.32712,-0.29823 0.47071,-0.46679 0.16553,-0.14079 0.31844,-0.29423 0.45898,-0.45899 0.15915,-0.1361 0.30743,-0.28303 0.44336,-0.4414 0.15812,-0.13541 0.30428,-0.28203 0.43945,-0.43946 0.15129,-0.1303 0.29171,-0.2713 0.42188,-0.42187 0.15101,-0.13015 0.29193,-0.26957 0.42187,-0.41992 0.14251,-0.12362 0.2748,-0.25672 0.39844,-0.39844 0.14353,-0.12429 0.27792,-0.25778 0.40234,-0.40039 0.13853,-0.12082 0.26808,-0.25065 0.38868,-0.38867 0.1342,-0.11763 0.25967,-0.2431 0.37695,-0.37696 0.13013,-0.1145 0.25302,-0.23541 0.36719,-0.36523 0.1268,-0.11194 0.24582,-0.23089 0.35742,-0.35742 0.12276,-0.1088 0.2392,-0.22318 0.34765,-0.34571 0.11878,-0.1056 0.2306,-0.21743 0.33594,-0.33593 0.11676,-0.10411 0.2283,-0.21348 0.33203,-0.33008 0.10951,-0.0983 0.21452,-0.20122 0.3125,-0.31055 0.10849,-0.0973 0.21142,-0.20039 0.3086,-0.30859 0.10622,-0.0957 0.2074,-0.19657 0.30273,-0.30274 0.0974,-0.0884 0.19111,-0.18011 0.2793,-0.27734 0.10117,-0.0916 0.19781,-0.18795 0.28906,-0.28906 0.0908,-0.0831 0.17905,-0.16895 0.26172,-0.25977 0.0891,-0.0815 0.17453,-0.16689 0.25586,-0.25586 0.088,-0.0807 0.17351,-0.164 0.2539,-0.25195 0.0827,-0.0764 0.16235,-0.15544 0.23829,-0.23828 0.0788,-0.0731 0.15586,-0.1476 0.22851,-0.22656 0.0749,-0.0697 0.14748,-0.14178 0.2168,-0.2168 0.0721,-0.0673 0.14204,-0.13674 0.20898,-0.20899 0.069,-0.0646 0.13693,-0.13002 0.20117,-0.19921 0.0645,-0.0607 0.12719,-0.12282 0.1875,-0.1875 0.063,-0.0594 0.12459,-0.12031 0.1836,-0.1836 0.0551,-0.0523 0.11009,-0.10484 0.16211,-0.16015 0.0552,-0.0523 0.11002,-0.10485 0.16211,-0.16016 0.0513,-0.0489 0.10175,-0.0989 0.15039,-0.15039 0.0469,-0.0449 0.0941,-0.0896 0.13867,-0.13672 0.0445,-0.0427 0.0884,-0.0862 0.13086,-0.13086 0.0425,-0.041 0.0844,-0.0822 0.125,-0.125 0.0346,-0.0337 0.0701,-0.0667 0.10351,-0.10156 0.0323,-0.0314 0.0645,-0.0632 0.0957,-0.0957 0.032,-0.0311 0.0648,-0.0616 0.0957,-0.0938 0.0283,-0.0277 0.0566,-0.0555 0.084,-0.084 0.02,-0.0197 0.041,-0.0385 0.0605,-0.0586 0.0223,-0.0219 0.0446,-0.044 0.0664,-0.0664 0.0183,-0.0182 0.0367,-0.0362 0.0547,-0.0547 0.0101,-0.0101 0.0213,-0.0191 0.0312,-0.0293 0.0114,-0.0114 0.0239,-0.0217 0.0351,-0.0332 0.009,-0.009 0.0167,-0.0185 0.0254,-0.0273 9.3e-4,-9.5e-4 0.003,-0.001 0.004,-0.002 0.17189,-0.17401 0.32921,-0.36333 0.4668,-0.57032 1.91527,-2.88129 -0.83757,-7.83686 -0.54883,-11.51367 0.0174,-0.018 0.0337,-0.0366 0.0508,-0.0547 0.13543,-0.12515 0.26098,-0.25462 0.38476,-0.38476 0.13778,-0.12706 0.26682,-0.25647 0.39258,-0.38867 0.13169,-0.1218 0.25238,-0.24848 0.37305,-0.375 0.13013,-0.12046 0.25174,-0.24407 0.37109,-0.36914 0.12444,-0.1155 0.24093,-0.23379 0.35547,-0.35352 0.12093,-0.11233 0.23217,-0.22936 0.34375,-0.3457 0.11723,-0.109 0.22554,-0.22123 0.33399,-0.33399 0.11608,-0.108 0.22457,-0.21838 0.33203,-0.33008 0.10511,-0.0981 0.20276,-0.19967 0.30078,-0.30078 0.10932,-0.10167 0.2108,-0.20756 0.3125,-0.3125 0.10635,-0.0992 0.20559,-0.20043 0.30469,-0.30273 0.0943,-0.0883 0.18093,-0.18074 0.26953,-0.27149 0.0987,-0.0921 0.19069,-0.18649 0.2832,-0.28124 0.096,-0.0898 0.18531,-0.18301 0.27539,-0.2754 0.0836,-0.0785 0.16117,-0.15978 0.24024,-0.24023 0.0883,-0.0826 0.17062,-0.16722 0.2539,-0.25195 0.0823,-0.0773 0.15835,-0.15715 0.23633,-0.23633 0.0787,-0.074 0.15184,-0.15086 0.22656,-0.22656 0.0746,-0.0702 0.14385,-0.14312 0.21485,-0.21485 0.0718,-0.0676 0.13852,-0.13796 0.20703,-0.20703 0.0692,-0.0652 0.13314,-0.13269 0.19922,-0.19922 0.0648,-0.0612 0.12545,-0.12321 0.1875,-0.18554 0.064,-0.0605 0.12222,-0.12388 0.18359,-0.18555 0.0516,-0.049 0.10048,-0.0987 0.15039,-0.14844 0.0612,-0.0579 0.11893,-0.11689 0.17774,-0.17578 0.0435,-0.0414 0.0828,-0.085 0.125,-0.12695 0.054,-0.0511 0.10413,-0.10433 0.15624,-0.15625 0.0374,-0.0356 0.0729,-0.0714 0.10938,-0.10742 0.0435,-0.0413 0.0847,-0.0832 0.12695,-0.125 0.0407,-0.0388 0.0776,-0.0799 0.11719,-0.11915 0.0303,-0.0289 0.0582,-0.0587 0.0879,-0.0879 0.0272,-0.0259 0.0534,-0.052 0.0801,-0.0781 0.0329,-0.0314 0.0635,-0.064 0.0957,-0.0957 0.0168,-0.0161 0.0323,-0.0327 0.0488,-0.0488 0.0234,-0.0224 0.0453,-0.0458 0.0684,-0.0684 0.0218,-0.0209 0.0429,-0.0414 0.0644,-0.0625 0.004,-0.004 0.008,-0.008 0.0117,-0.0117 0.016,-0.0153 0.031,-0.0315 0.0469,-0.0469 0.005,-0.005 0.0102,-0.0104 0.0156,-0.0156 0.1833,-0.17681 0.35287,-0.35961 0.51172,-0.54688 0,0 0.002,-0.002 0.002,-0.002 0.007,-0.008 0.0148,-0.0155 0.0215,-0.0234 0.51325,-0.61153 0.88567,-1.28185 1.03515,-2.04882 0.79001,-4.05351 -4.55468,-7.82588 -4.55468,-11.8711 0,-4.04523 5.34193,-7.796329 4.57031,-11.785149 -0.77162,-3.98882 -7.60388,-5.998155 -9.19141,-9.794922 -1.58754,-3.796767 2.06849,-9.522348 -0.21875,-12.908203 -2.28724,-3.385855 -9.34875,-3.094925 -12.16015,-5.861329 -2.81139,-2.766405 -1.14946,-8.535769 -4.48828,-10.792968 -3.33883,-2.257198 -9.6011,0.801619 -13.42579,-0.748047 -3.82469,-1.549667 -5.44277,-7.931472 -9.31835,-8.679688 -0.24223,-0.04676 -0.48508,-0.07122 -0.72657,-0.07617 z"
       id="path33497"
       inkscape:connector-curvature="0"
       clip-path="url(#clipPath34395)" />
    <path
       sodipodi:nodetypes="zzzzzzzzzzzzzzzzzzzzzzzzzzzzzzzzz"
       inkscape:connector-curvature="0"
       id="circle3368"
       d="m 183.97165,106.35314 c 0,4.04522 5.3444,7.81606 4.55439,11.86957 -0.79001,4.0535 -7.75443,5.47074 -9.32978,9.1708 -1.57536,3.70005 2.394,9.75511 0.19258,13.06687 -2.20143,3.31177 -9.06263,2.13536 -11.96763,5.01873 -2.90499,2.88337 -1.9182,10.00992 -5.29879,12.2608 -3.38058,2.25088 -9.5585,-1.72641 -13.36906,-0.17591 -3.81056,1.5505 -5.48538,8.70213 -9.38432,9.4301 -3.89894,0.72797 -7.75196,-4.77475 -11.91079,-4.77475 -4.15882,0 -8.26948,5.34901 -12.38511,4.47322 -4.11563,-0.8758 -5.12456,-7.02707 -8.61484,-8.54818 -3.49027,-1.52111 -9.029081,1.96933 -12.392996,-0.2483 -3.363916,-2.21763 -3.551973,-9.6996 -6.437705,-12.68502 -2.885732,-2.98542 -8.67502,-1.14686 -11.104607,-4.8112 -2.429587,-3.66434 0.820009,-9.05675 -0.520155,-12.85172 -1.340162,-3.79497 -7.900615,-5.87021 -8.567449,-9.27715 -0.666835,-3.40693 5.062702,-8.4235 5.062702,-12.56505 0,-4.14155 -5.796962,-7.642142 -4.990028,-11.636093 0.806935,-3.993952 7.993693,-5.625688 9.519891,-9.259191 1.526197,-3.633504 -2.724221,-9.156323 -0.508826,-12.498437 2.215394,-3.342114 9.279622,-2.883814 12.20139,-5.792958 2.921767,-2.909144 1.836579,-9.381852 5.193583,-11.609086 3.357005,-2.227235 8.84562,0.813676 12.48974,-0.689885 3.64412,-1.50356 5.32874,-7.532824 9.25705,-8.32866 3.9283,-0.795836 8.19524,4.077532 12.31511,4.077532 4.11987,-10e-7 7.88726,-4.934998 11.76284,-4.186783 3.87558,0.748216 5.49432,7.129 9.31901,8.678667 3.82469,1.549666 10.0874,-1.509246 13.42623,0.747952 3.33882,2.257199 1.67566,8.027291 4.48705,10.793696 2.8114,2.766404 9.87408,2.474736 12.16132,5.860591 2.28724,3.385855 -1.3692,9.112876 0.21834,12.909643 1.58753,3.796767 8.41999,5.806073 9.19161,9.794893 0.77162,3.98882 -4.57075,7.740079 -4.57075,11.785309 z"
       style="fill:#3b4552;fill-opacity:1;stroke:none;stroke-width:1.30461562"
       clip-path="url(#clipPath34391)" />
    <path
       style="fill:#ffffff;fill-opacity:1;stroke:none;stroke-width:0.90689164"
       d="M 170.85984,106.35314 A 42.883841,42.883841 0 0 1 127.976,149.23698 42.883841,42.883841 0 0 1 85.092158,106.35314 42.883841,42.883841 0 0 1 127.976,63.469295 42.883841,42.883841 0 0 1 170.85984,106.35314 Z"
       id="circle3346"
       inkscape:connector-curvature="0"
       clip-path="url(#clipPath34387)" />
    <path
       style="fill:#2b78c2;fill-opacity:1;stroke:none;stroke-width:0.74217635"
       d="M 163.07101,106.35314 A 35.095012,35.095012 0 0 1 127.976,141.44815 35.095012,35.095012 0 0 1 92.880986,106.35314 35.095012,35.095012 0 0 1 127.976,71.258123 35.095012,35.095012 0 0 1 163.07101,106.35314 Z"
       id="path3342"
       inkscape:connector-curvature="0"
       clip-path="url(#clipPath34383)" />
    <path
       sodipodi:nodetypes="ccccccc"
       inkscape:connector-curvature="0"
       id="path3338"
       d="m 98.010569,165.89812 5.436331,-0.84134 c 6.11145,10.88609 11.13432,9.61647 16.24428,9.31943 l -7.31316,35.85391 -9.5783,-9.12527 -12.814214,3.23591 z"
       style="fill:#ffffff;fill-opacity:1;fill-rule:evenodd;stroke:none;stroke-width:0.67500001px;stroke-linecap:butt;stroke-linejoin:miter;stroke-opacity:1"
       clip-path="url(#clipPath34379)" />
    <path
       style="fill:#ffffff;fill-opacity:1;fill-rule:evenodd;stroke:none;stroke-width:0.67500001px;stroke-linecap:butt;stroke-linejoin:miter;stroke-opacity:1"
       d="m 157.29249,165.96284 -5.43634,-0.84134 c -6.11144,10.88609 -11.13431,9.61647 -16.24428,9.31943 l 7.31316,35.85391 9.57831,-9.12527 12.81421,3.23591 z"
       id="path3340"
       inkscape:connector-curvature="0"
       sodipodi:nodetypes="ccccccc"
       clip-path="url(#clipPath34375)" />
    <path
       sodipodi:nodetypes="scsscsscsscsscss"
       inkscape:connector-curvature="0"
       id="path3350"
       d="m 140.61503,127.34014 -12.74299,-7.20004 -13.02465,7.16415 c -1.44885,0.79693 -3.7806,-0.99944 -3.45336,-2.61257 l 2.879,-14.1922 -10.40233,-9.76406 c -1.31804,-1.237172 -0.9375,-4.281177 1.24745,-4.531385 l 14.12133,-1.617089 6.4888,-13.797401 c 0.51114,-1.086864 3.14638,-1.971907 4.02405,-0.02826 l 6.15559,13.631784 15.31336,1.931052 c 2.07941,0.262219 1.88582,2.977876 0.9339,3.851149 l -10.91204,10.01052 2.89153,15.13957 c 0.25931,1.35772 -1.54592,3.12996 -3.51964,2.01477 z"
       inkscape:transform-center-y="-4.1513637"
       inkscape:transform-center-x="-0.016606677"
       style="fill:#ffffff;fill-opacity:1;stroke:none;stroke-width:0.67500001"
       clip-path="url(#clipPath34371)" />
  </g>
</svg>
